<svg xmlns="http://www.w3.org/2000/svg" version="1.1" xmlns:xlink="http://www.w3.org/1999/xlink" width="1000" height="1000"><g clip-path="url(#SvgjsClipPath1010)"><rect width="1000" height="1000" fill="#ffffff"></rect><g transform="matrix(0.5126954376697845,0,0,0.5126954376697845,150,150)"><svg xmlns="http://www.w3.org/2000/svg" width="1365.333" height="1365.333" viewBox="0 0 1024 1024"><path d="M0 512v512h1024V0H0zm514.7-374.2c1.1 1.5 5 6 8.7 10 4.9 5.3 6.6 7.9 6.6 10 0 2 .9 3.5 3 5 1.6 1.3 3.9 4.1 5 6.3 3.1 6 1.9 10.1-4.8 17.1-5.1 5.4-5.4 6-4.4 8.4 1.7 3.6 1.5 5-1.4 9.4-2.4 3.6-2.6 4.8-2.8 15.2-.1 11.1 1 43.5 1.9 53.3.7 7.6 1.8 32.6 1.6 35.9-.1 1.5-.6 3.6-1.1 4.6-.7 1.3-.3 2.2 2 3.9 1.6 1.2 3.2 3.2 3.6 4.6.8 3.4-1.4 9.5-3.4 9.5-1.3.1-.9.7 1.3 2.5 5 4.2 10.6 6.4 18.9 7.5 13.7 2 26.2-1.2 32-8l2.6-3.2 3.6 3.6c2 2 4.4 3.6 5.4 3.6s4.9-1.6 8.6-3.5c9.3-4.7 9.5-4.6 7.8 1.7-3.3 12.1-3.4 13.6-.7 23 1.4 4.9 2.3 9.1 2 9.4s-3.7-.8-7.5-2.5c-7.5-3.3-9.7-3.7-10.7-2.1s-3.4 1.2-5.7-1c-1.2-1.1-2.9-2-3.7-2-1.3 0-1.4-.2-.2-.9 1.1-.7.9-1.1-.8-2-2.3-1.3-4.5-.6-3.5 1 .3.5 1 .7 1.5.4.5-.4.9-.1.9.4 0 .6-1.8 1.1-3.9 1.1s-7 .9-10.7 2.1c-5.9 1.8-7.7 3-13.4 8.8-11.7 11.8-16.5 26.2-12.5 38.3.9 2.9 2.4 6.1 3.2 7 1.4 1.6 1.2 2.1-1.6 5.7-4.6 5.8-6.1 9.8-8.6 23.6-.6 3.3-2.9 21.3-4.5 34.5-.5 4.7-1.2 13.6-1.6 19.8-1.1 20.1-2 10.4-1.3-14.3 1-33.6 4-53.3 9.5-63.4l2.5-4.6-2-5.7c-5-14.6 2.5-36.2 16.3-46.6 9.1-6.9 18.3-10.4 27.5-10.3 8.9 0 16.3 1.4 20.9 4.1 3.7 2.2 3.7 2.1 1.8-4.1-1.4-4.7-1.2-11.8.6-15.2 1.1-2.2.5-2.2-4 .3-2 1.1-5.4 2.6-7.4 3.4-5.5 2.2-4.9 4 1 3.3 4.2-.6 4.5-.5 2.9.7-1.4 1.1-5.2 1.4-14.1 1.5-8.5 0-14.9.6-21.4 2.1-5.1 1.1-13.2 2.4-18 3-4.8.5-10.3 1.2-12.2 1.6l-3.5.7 1.9-2.2c1.9-2.1 1.9-2.2 0-3.6-1.8-1.4-4.4-2.1-3.2-.9.9.9-2.2 7.1-7 14.1-2.3 3.4-4.7 7.4-5.2 8.8-1.2 3.1-2.5 2.6-3.5-1.2-.3-1.5-3.4-6.9-6.8-12-4.5-6.8-6.6-9.1-7.7-8.6-.8.3-3.3.8-5.5 1l-4 .3 5.5-2.8c3-1.5 7.9-5 10.8-7.7 2.8-2.8 6.2-5.9 7.4-7l2.3-2 5.6 5.5c3.1 3 6.2 6.5 6.8 7.7.8 1.5 2.1 2.3 3.9 2.3 1.5 0 4.1.8 5.7 1.7 3.8 2.1 16.5 2.3 25 .3l6-1.3-7.5-1.2c-16-2.6-26.9-7-30-12-2.1-3.4-2.7-7.1-1-6 1.6 1 2.4-4.3.9-6.1-1.1-1.4-2.6-1.5-8.4-1-3.8.4-10.3.9-14.2 1.3l-7.3.6v3.2c0 2.9-.3 3.2-2.1 2.8-2.2-.6-3.9-4-3.9-7.8 0-1.3 1.4-3.7 3.1-5.5 3.1-3 3.1-3.2 1.9-7.5-.7-2.4-.9-4.8-.6-5.3.3-.6.8-5.7 1.1-11.4 3.8-83.1 3.7-85.8-.3-90.1-2.6-2.8-2.8-5.9-.5-8.3 1.6-1.6 1.5-1.9-3-5.8-6.3-5.4-8.7-9.3-8.7-13.9 0-4.9 2.1-8.9 6.5-12.3 1.9-1.4 3.5-3.5 3.5-4.6 0-3 2.6-7.3 6.2-10 1.8-1.4 5.1-4.8 7.3-7.6s4.3-5.1 4.6-5.2c.3 0 1.4 1.2 2.6 2.8M471 250c0 .5-.5 1-1.1 1-.5 0-.7-.5-.4-1 .3-.6.8-1 1.1-1 .2 0 .4.4.4 1m119.3-.3c.9.9-1.3 3.4-2.4 2.7-1.4-.8-1.1-3.4.4-3.4.8 0 1.7.3 2 .7m-196.6 32.9c.8 2.1-1.3 4.2-2.8 2.7-1.3-1.3-.5-4.3 1.1-4.3.6 0 1.3.7 1.7 1.6m254.8 12.9c0 1-.5 2-1.1 2.2-1.3.4-2.7-2.4-1.8-3.8.9-1.5 2.9-.4 2.9 1.6M420 302.6c0 .8-.5 1.2-1 .9-.6-.4-.8-1.1-.5-1.6.9-1.4 1.5-1.1 1.5.7m147.5 2.1c.9-.4 1.2-.1.8.9-.3 1 .2 1.4 1.8 1.5 1.6 0 1.9.3.9.6-.8.3-2.7 1.4-4.1 2.4-2.5 1.7-2.6 1.7-5.3-.5l-2.8-2.2 2.6-1.7c1.4-1 2.6-2.5 2.7-3.5 0-1.2.3-1 1 .7.6 1.4 1.5 2.1 2.4 1.8M455.4 306c1.1.8 2.7 1.8 3.6 2.2 1.1.5 1 .7-.7.7-1.2.1-3 1.2-4.1 2.6l-1.9 2.4-2.3-2.4c-1.3-1.4-3.3-2.5-4.4-2.5-1.6 0-1.3-.4 1.2-1.7 1.9-.9 3.9-2.5 4.5-3.5.8-1.2 1.3-1.4 1.6-.6.2.7 1.3 2 2.5 2.8m149.1-3c.3.5.1 1-.4 1-.6 0-1.1-.5-1.1-1 0-.6.2-1 .4-1 .3 0 .8.4 1.1 1m62.5 24.6c0 .8-.4 1.2-1 .9-.5-.3-1-1-1-1.6 0-.5.5-.9 1-.9.6 0 1 .7 1 1.6m-244.7 5.9c7.3 3.9 9.3 3.8 13.6-.9l2.4-2.5 4.5 4c5.7 5 12.8 7.1 23.6 7.1 9.7 0 15.2-1.3 22.3-5.3 8.3-4.6 10.8-3.7 5.1 1.8-7.3 7-26.1 11.2-50.1 11.1-8.6 0-16.1.3-16.7.7-.5.3-1 .2-1-.4 0-1.4 3.4-3.1 6-3.1 1.2 0 2.8-.7 3.6-1.5 1.4-1.3 1.1-1.5-2.3-1.5-2.2 0-5.6-1.1-8.2-2.5l-4.4-2.5.8 3.2c1.1 4.2.8 11.4-.6 15.6-1.4 4.1-.8 4.8 2.4 2.8 5.6-3.7 21-6.2 28.2-4.6 18.9 4.2 35.2 21 38.7 39.7 1.2 6.7.3 13.3-2.8 19.8-1.5 3.2-1.4 3.5 1.5 8.7 1.7 2.9 3.7 7.3 4.6 9.7 1.4 4.2 4.1 21.9 4.6 30.8.2 2.4.7 4.3 1.2 4.3.6 0 .7-6 .3-15.3-.3-8.3-.9-25.3-1.2-37.7-.7-25.2-2.3-34-7.4-42.3-1.6-2.6-2.7-4.7-2.5-4.7s2 1.4 4 3.1c2 1.8 3.8 2.9 4.1 2.6 1.1-1.1-1.6-7.9-4.6-11.7-3.7-4.6-7.6-7-11.7-7-3.5-.1-16-3.3-17-4.5-.4-.4 0-.5 1-.2 1 .4 5.7.7 10.3.7h8.4l8.1 8.2c6.2 6.3 8.9 10 11.9 16.2 5.8 12.3 6.8 19.1 7.4 51.1.4 20.8.9 101.5.6 111 0 .5-1-.6-2.1-2.5-1.2-1.9-5-6.9-8.5-11.1l-6.4-7.7v-9.9c0-15.9-2-46-3.7-56.3-2.2-13.5-4.7-21-8.9-26.5l-3.7-4.8 3.1-5.7c4.2-7.5 4.9-12.9 2.8-21.1-4.5-17.6-19.4-30.6-36.3-31.7-6.7-.4-7.6-.2-10.7 2.2-3.2 2.4-3.6 2.5-6.7 1.2s-3.7-1.2-9.1 1.5c-5 2.5-8.8 3.6-8.8 2.6 0-.2.9-3 2-6.2 3.2-9.3 3.5-14.9 1.2-23.8-1.5-5.7-1.7-7.7-.7-7.7.6 0 4.2 1.6 7.8 3.5m-30.1 2c0 .5-.5 1.1-1.1 1.3s-1.1-.4-1.1-1.3.5-1.5 1.1-1.3 1.1.8 1.1 1.3m-29.2 6.1c0 .8-.4 1.2-1 .9-.5-.3-1-1-1-1.6 0-.5.5-.9 1-.9.6 0 1 .7 1 1.6m284.1 6.7c-.1 1.2-1.5.9-1.9-.4-.3-.6.1-1 .8-.8.6.3 1.1.8 1.1 1.2m-328.5 2.8c1 1.7-1.3 3.6-2.7 2.2-1.2-1.2-.4-3.3 1.1-3.3.5 0 1.2.5 1.6 1.1m147.8 3.7c5.7 2.7 12.9 7.2 11.4 7.2-.2 0-3.5-1.5-7.4-3.4-9.1-4.5-16.7-5.9-30.2-5.4-6.1.1-10.8 0-10.4-.4 1.4-1.3 5.9-1.6 17.8-1.4 11.2.3 12.6.5 18.8 3.4m121.1-2.9c3.1.7 1.7.9-6.7 1-13.3.1-19.4 1.4-28 5.6-3.8 1.8-6.8 3.2-6.8 3 0-.1 1.7-1.4 3.8-2.8 9-5.9 26.5-9.1 37.7-6.8m7.2 1.7c-.3.3-1.2.4-1.9.1-.8-.3-.5-.6.6-.6 1.1-.1 1.7.2 1.3.5m88.8 8.4c1 .9 1.9.8 3.7-.1 2.3-1.2 2.3-1.2.5.9-1.8 2-1.8 2.1.2 3.1 1.1.6 3.5 1.1 5.3 1.2l3.3.1-4 .9c-5.1 1.2-6.2 2.3-4.4 4.5 1.3 1.6 1.2 1.6-.7.6-2.6-1.4-3.7-.4-5.2 4.8l-1 3.5-.1-3.1c-.1-1.6-.7-3.9-1.5-4.9-1.2-1.7-1.6-1.8-3.2-.5-1.8 1.4-1.8 1.4-.4-.4 1.3-1.6 1.2-2-.5-3.2-1-.8-3-1.4-4.4-1.5-2.4-.1-2.4-.2.5-.8 4.3-1.1 5.6-2.1 5-3.8-.3-.8-.1-1.1.5-.8 1.9 1.2 3.9-1.7 4.1-5.9l.1-4.1.4 4.2c.2 2.3 1 4.7 1.8 5.3m-138.5.4c0 .2-.8 1-1.7 1.7-1.6 1.3-1.7 1.2-.4-.4s2.1-2.1 2.1-1.3m-192.9 7.1c-.1 1.5-2.4 1.2-2.9-.3-.3-.9.2-1.3 1.2-1 1 .1 1.7.7 1.7 1.3m178.1 3.7c-2.8 3.5-5.3 15.7-5.8 27.8-1.1 33.9-1.5 40.1-2.4 42.2-.6 1.5-.9-8.3-.7-29.2.2-34.2.2-33.9 6.2-40.4 2.5-2.7 4.9-3 2.7-.4m-134.1 5.9c1.2 0 1.2.1 0 .6-.8.3-2.6 1.8-4 3.3l-2.6 2.6-3.1-3.1-3.1-3.2 2.9-1.9c1.5-1 2.8-2.3 2.8-2.8 0-.6 1.3.2 2.8 1.7s3.5 2.7 4.3 2.8m55.8-.6c6.8 3.5 13.7 14.1 15.5 24 .5 2.9.5 2.9-.5.5-6.6-15.1-10.3-20.2-17.5-24.7-2.7-1.7-.8-1.6 2.5.2m123.6.4c-7.9 3.6-15.1 12.4-19 23-1.2 3.1-1.4 3.3-1.4 1.1-.1-3.7 4.2-12.4 9-18 3.8-4.5 5.9-5.9 9.7-6.6.8-.1 1.6-.5 2-.8.3-.3 1.2-.6 2.1-.6s-.2.9-2.4 1.9m-253 8.8c.6 2.5 3.3 3 5.5 1 .8-.6.6-.2-.5 1.1-1.6 2-1.7 2.5-.5 3.2.8.6 2.3 1 3.2 1s2 .4 2.3 1-.4 1-1.7 1c-3.9 0-5.2 1.4-3.8 3.9 1 2 1 2.1-.9.9-2.6-1.6-3.1-1-4.1 4.9-.7 4.3-.8 4.5-.9 1.2 0-1.9-.7-4.4-1.5-5.4-1.2-1.7-1.6-1.8-3.2-.5-1.6 1.2-1.7 1.2-.6 0 1.9-2.2 1.4-3.9-1.3-4.6-2.6-.7-3.5-2.4-1.1-2.4.7 0 1.9-.7 2.6-1.5 1-1.2 1-1.8-.1-3.3-1.3-1.5-1.2-1.6.4-.3 2.8 2.2 4.7-.2 4.9-6.3.1-4.5.2-4.7.5-1.1.2 2.2.6 5 .8 6.2m309.5-3.2c.8.7 2.4 1.5 3.5 1.8 1.9.5 1.9.5-.1.6-1.1 0-3.1 1.2-4.4 2.6l-2.3 2.5-2.2-2.4c-1.2-1.3-2.8-2.6-3.6-2.9-1.1-.4-1.1-.6.2-.6.9-.1 2.4-1 3.4-2.1 1.8-1.9 2.6-1.9 5.5.5m-193.3 17.6c6.1 2 17.3 8.5 18.8 11 .5.6-1.3-.2-3.9-2-8.3-5.7-15.4-8.2-32.6-11.5-1.4-.3.7-.3 4.5 0 3.9.2 9.8 1.4 13.2 2.5m222.3-.6c0 .8-.4 1.5-1 1.5-.5 0-1-.7-1-1.5s.5-1.5 1-1.5c.6 0 1 .7 1 1.5m-75 .7c-8.5 3.6-15.3 7.2-19.6 10.5-2.7 2-4.2 2.9-3.5 1.9 2.9-3.5 13.7-10.4 18.6-11.9 5.8-1.8 8.1-2 4.5-.5m-225 2.3c0 .8-.4 1.5-.9 1.5-1.3 0-2.2-1.6-1.4-2.4 1.1-1.1 2.3-.6 2.3.9m338 5.8c0 .8-.3 1.7-.7 2-.9.9-3.4-1.3-2.7-2.4.8-1.4 3.4-1.1 3.4.4m15 9.2c1.5 1.8.6 4.5-1.5 4.5-1.8 0-3-2.4-2.1-4.5.7-1.9 2-1.9 3.6 0m-287.3 3c19.8 4.6 39 17.2 54.6 35.8 3.7 4.5 4.1 5.5 4.6 12.3.4 4.1.4 7.4 0 7.4-.3 0-1.8-1.7-3.1-3.8-3.8-5.6-18.5-20.4-25.8-25.9-11.7-8.9-20.1-12.7-35.7-16.3-25.7-6-54.3 2.1-75 21.4-37.4 34.8-38.8 91.8-3.5 139.2 12.5 16.7 39.9 42.3 67.2 62.7 13.8 10.3 32.9 25.9 43.4 35.4 9.2 8.3 29.6 30.1 29.6 31.5 0 .5.5.8 1.1.8s.8-.9.4-2.1c-.8-2.5-.9-53.8-.1-54.6.3-.4.6 2.5.6 6.3 0 6.9 2.7 38.6 3.5 41.4.2.8.9 6.9 1.5 13.5 2.3 25.3 4.1 42.4 6 55.5.5 3.6 1.5 10.3 2 15 1.1 8.4 7.7 40 8.6 40.9.7.7.4-3.1-.5-7.4-.5-2.2-1.2-6.3-1.6-9-.3-2.8-1-7.9-1.6-11.5-3.1-19.2-3.8-37.3-5-125.5l-1.2-87-4.7-5c-2.6-2.8-5.8-6.8-7.2-9-2.1-3.4-3.9-4.5-10.9-7.4-4.9-2-11-3.7-14.8-4l-6.4-.6 5.4-3.5c7.4-4.7 17.7-14.7 20.1-19.5 1.2-2.2 3.6-5.4 5.4-7.1l3.3-3.1-6.5-6.4c-9-8.9-11.1-12.3-11.7-19.2-.8-8.7-6.1-16.6-17-25.1-2.6-2.1-6.3-6.1-8.1-8.9-4.5-6.9-7.8-9.8-16.1-14-7.6-3.9-8.1-4.7-1.3-2 8.7 3.3 14.6 8.1 17.9 14.4 2.5 4.7 4.6 7 9.7 10.5 8.4 5.9 10.7 6.7 12.3 4.8 2.5-3-7.6-31.1-12.1-33.9-.6-.3-1-1.1-1-1.7 0-2 6 4.4 10.6 11.3 3.4 5.1 4.4 7.6 4.4 10.6 0 5.2 2.4 8.2 10.5 12.9 8.9 5.2 10.1 9.1 1.2 4.4-4.3-2.3-8.5-2.6-9.3-.6-.3.8.8 4 2.4 7.3 1.6 3.2 3.9 8.3 5.1 11.5 1.5 3.6 5.3 9.3 10.7 15.7L497 541l-3.6 3.2c-1.9 1.7-5.3 5.7-7.4 8.8-4.3 6.3-10.8 12.6-14.8 14.2-2.6 1-2.4 1.1 3.8 2.8 9.5 2.5 11.5 3.7 14.8 8.9 3.1 4.7 12.6 14.3 17.2 17.2l2.5 1.6.6 120.4c.7 138.7.6 131.9 1.7 131.9 1.7 0 4.9-19.3 5.7-34.5.7-12.9 1.5-18.1 2.5-16.5.6 1 .9.8 1.4-.6.5-2-.3 10.6-1 14.1-.2 1.1-.7 4-1 6.5s-1.2 7.6-2 11.3c-1.7 8.1-1.7 8.4-.5 7.2 1.7-1.7 8.9-31.6 10.5-43.5 3.1-22.6 5.6-43.6 6.1-50.5 1.8-27.4 1.4-23.9 4-38.5 2.1-11.8 5.7-27.1 6.2-26.6.3.2-.3 5.2-1.1 11-1.8 11.8-2 17.6-.8 17.6.5 0 2.9-2.8 5.4-6.3 5.6-7.4 20.8-22.7 20.8-20.8 0 1.1.3 1.1 1.8 0 .9-.8-5.1 5.5-13.4 13.8-8.2 8.3-15.5 16.2-16 17.5-.6 1.3-1.1 4.8-1.2 7.8l-.2 5.5 3.7-4.5c16.5-19.6 29.4-31.9 52.7-50.3 58.4-46.1 70.2-56.8 87.3-79.2 9.2-12.1 18.6-32.9 21.9-48.5 2.6-12.2 2.4-33.6-.5-44.5-6.7-25-24-46.9-45.6-57.6-12.8-6.3-21.5-8.7-34.5-9.5-27.1-1.6-50.6 8.7-73.1 32.3-8.5 8.9-18.7 22.8-13.2 18 1.2-1.1 4.9-2.2 8.9-2.8 3.7-.5 7.3-1.4 8.1-2.1.7-.6 3.7-4.3 6.7-8.2 6.7-8.8 11.4-13.3 18.9-18.1 13.1-8.3 30.4-12 48.1-10.4 19.3 1.8 33.6 8.7 47.8 22.9 7.2 7.3 9.4 10.2 13.1 18.1 5.2 10.8 7.1 17.5 8.8 30.9 1.2 10.2.4 25.3-1.2 22.9-.7-.9-.8-.2-.5 2.3.6 3.9-1.8 14.5-5.3 23.9-2.3 6.1-11.2 21.4-13.9 23.9-1.4 1.3-1.5 1.3-.5 0 3.6-5 10.8-20.3 13.8-29.4 7.5-23 6.6-48.3-2.5-67.1-10.6-21.7-28.4-36.4-51.5-42.4-10.7-2.8-28.6-2.3-39 .9-16.8 5.3-27.6 13.6-33.9 26.1-3.7 7.3-3.8 9.4-.5 8.6 1.1-.3 1.9-.4 1.9-.2 0 .8-10.8 16.3-13 18.6-4.7 4.9-9.5 11.4-9.2 12.2.1.5-.5 1.5-1.5 2.2-1.6 1.2-1.6 1.6-.3 4.1 4.3 8.7 9.3 12.4 16.7 12.4 3.6 0 3.4.2-4 3.4-13.3 5.9-18.2 9.8-22.8 18.8-2.4 4.4-6 9.4-8.5 11.8-2.4 2.2-4.4 4.4-4.4 4.9 0 .4.8 1.6 1.9 2.5 1 .9 2.9 4.5 4.1 7.8 1.4 3.8 3.9 7.9 6.6 10.8 3 3.2 4.2 5.2 3.8 6.6-.7 2.5 6.1 13 12.6 19.5 4.4 4.4 4.6 4.8 2.2 4.2-4.1-1.2-20.4-.6-21.2.7-.8 1.2-2 60.6-2 96.2 0 19.8-.6 35-2.5 57.8-.2 3-.4 7.6-.4 10.2-.1 3.1-.5 4.7-1.3 4.5-.6-.1-1.4.9-1.8 2.3-.5 1.7-.7.8-.6-2.8.1-3.7.5-5.1 1.4-4.7.7.3 1.2-.4 1.2-1.8 0-1.8-.2-1.9-1-.7-1 1.5-.9-5.3.5-43 .3-7.4.5-37.8.6-67.5l.1-54-3.6-4.2c-2-2.3-3.6-5.1-3.6-6.3 0-2 .3-1.9 4.2 1.4 4.5 3.9 12.3 7.2 19.1 8.2l4.2.6-5.6-5.4c-5.3-5.1-11.9-13.7-11.9-15.5 0-.5-1.8-3.4-4-6.3s-4-6.4-4-7.6c0-3.8-1.9-7.7-5.6-11.5l-3.6-3.6 5.7-5.4c3.4-3.2 7-7.9 8.7-11.4 4.8-9.5 7.2-12.1 14.8-15.7 3.8-1.8 7-3.6 7-3.9 0-.4-.9-.9-1.9-1.2-1.1-.2-4.2-3.6-7-7.3-3.9-5.4-4.9-7.4-4.4-9.4.3-1.4 4.2-6.3 8.7-11s10.1-10.7 12.6-13.4l4.5-4.9-10.1.7c-12.2.7-12 1-9.8-12.7l1.5-9 6.7-7.6c15.8-17.7 34.7-29 56-33.5 8.9-1.9 29.1-2 37.8-.2 40.9 8.6 71.4 41.6 77.5 83.5 1.5 10.7.6 29.7-2 41.1-4.7 20.7-13 37.5-27.8 56-14.6 18.4-29.8 32.2-69.3 62.9-40.1 31.2-56.5 46.4-71.6 66.5-5.7 7.5-6.4 9.4-7 17.6-.3 3.6-.9 11.2-1.5 17-.5 5.8-1.1 13.2-1.4 16.5-.9 9.7-4.5 32.3-6.7 41.5-4.2 18.1-15.3 53-16.8 53-1.3 0-11.1-29.4-15.4-46.5-5.5-21.5-8.4-41.5-10.1-70-1.3-20-1.8-21.8-9.2-31.3-14.8-18.9-36.3-38.3-73.8-66.7-24.3-18.5-32.2-25.2-48.1-41-16-15.9-22.7-24-30.7-37.3-13.3-22.1-20.3-51.4-17.7-74.2 4.8-42.7 31.7-75.7 71.1-87 8.5-2.5 27.3-3.9 36.2-2.8 3.2.5 8.8 1.5 12.4 2.3m-162.7 10c0 .8-.4 1.5-1 1.5-.5 0-1-.7-1-1.5s.5-1.5 1-1.5c.6 0 1 .7 1 1.5m52.5 1.5c-.5.8-1.1.8-1.7.2s-.7-1.6-.3-2.2c.5-.8 1.1-.8 1.7-.2s.7 1.6.3 2.2m441.5-1.4c0 .8-.4 1.2-1 .9-.5-.3-1-1-1-1.6 0-.5.5-.9 1-.9.6 0 1 .7 1 1.6m-337.6 8c6.2 1.6 17.1 6.9 21.6 10.4 1.6 1.3-.1.8-5-1.4-14.6-6.8-34.6-8.5-50.3-4.5-41.9 10.6-66.4 54.4-55.7 99.4 2.3 10 6.2 20.9 10.7 30 2.2 4.6 2.7 6.1 1.4 4.5-4-4.8-13-24.6-15.3-33.5-3-11.7-3.2-36.8-.5-48 6.8-27.2 28.6-49.4 55.7-56.4 9.7-2.6 28.5-2.8 37.4-.5m-.7 21c-.3.3-1.2.4-1.9.1-.8-.3-.5-.6.6-.6 1.1-.1 1.7.2 1.3.5m177.8 3.8c-8.7 4-13.8 8.4-17.6 15-3.5 6.2-3.8 5.4-.5-1.2 3.8-7.5 8-11.1 18.1-15.4 7.2-3.1 7.2-1.8 0 1.6M287 492.1c0 1.4-.5 1.9-1.7 1.7-2.6-.5-2.9-3.8-.4-3.8 1.5 0 2.1.6 2.1 2.1m455.4-1.3c.8 1.3-1.1 3.5-2.3 2.8-1.6-1-1.4-3.6.3-3.6.8 0 1.7.4 2 .8m-172.9 11.1c-.8 1.3-15.5 10.5-16 10-.2-.3 3.3-2.7 7.8-5.6 9.2-5.7 9-5.6 8.2-4.4m196.6 13.5c1.3 1.4 3 2.6 3.8 2.7 1.4 0 1.4.1.1.6-.8.3-3 2.1-4.7 4.1-1.9 2-3.3 3-3.3 2.1 0-.8-1.6-2.5-3.4-3.9-2.6-1.9-3.1-2.7-2-3.3.8-.4 1.4-1.4 1.4-2.1 0-.8.9-1.6 2-1.9 1.3-.3 2-1.4 2.1-2.9 0-2.3 0-2.3.9-.1.5 1.2 1.9 3.3 3.1 4.7M264.5 514c.9 0 1.3.5 1 1-.4.6.9 1.7 2.7 2.5 2.3 1 2.7 1.4 1.3 1.5-1 0-3.3 1.4-5.1 3.1l-3.2 3.1-3.1-3.1c-1.8-1.7-3.5-3.1-4-3.1-.4 0 1.1-1.9 3.3-4.3 3.6-3.7 4.2-4.1 4.8-2.5.4 1 1.5 1.8 2.3 1.8m255.4 12.9c-3.5 3.8-6.5 6.8-6.7 6.6s.3-1.7 1.2-3.3c1.5-2.9 10.6-11.5 11.4-10.7.2.2-2.4 3.5-5.9 7.4m-57 3.6c5.5 7.4 5.9 9 3.6 12.1-1.3 1.7-1.3 1.6-.3-1.3 1.1-2.9.9-3.5-2.9-8.5-4.5-5.9-8.3-11.8-6.6-10.3.7.5 3.4 4.1 6.2 8m212.6 17.7c-5.5 22.8-22.7 48.4-47.8 71.1-4.8 4.4-8.7 7.7-8.7 7.5 0-1.3 5.9-7.8 15.7-17.1 6.2-5.9 10.9-10.7 10.5-10.7s.8-1.3 2.6-2.9c1.8-1.7 3.2-3.3 3.1-3.6-.1-.4 1.9-3.5 4.3-6.8 9.5-13.1 18.3-31.3 20.3-42 .4-2.1 1-3.6 1.3-3.3.2.3-.3 3.8-1.3 7.8M353 558c6.6 16.7 17.7 32.7 35.7 51.9 12.2 13 14.5 16 8.7 11.3-8.5-6.8-25.8-26.6-33.7-38.5-7.5-11.2-16.8-33.7-16.6-39.8 0-1.3.9.3 1.9 3.6s2.8 8.5 4 11.5m-67.5-14c.3.5.1 1-.4 1-.6 0-1.1-.5-1.1-1 0-.6.2-1 .4-1 .3 0 .8.4 1.1 1m455.5 1c0 .5-.2 1-.4 1-.3 0-.8-.5-1.1-1-.3-.6-.1-1 .4-1 .6 0 1.1.4 1.1 1m-201.6 13.4c-2 2-3.4 4.4-3.4 5.8 0 1.3-.6 3.3-1.4 4.4-1.3 1.7-1.3 1.3-.5-3.1.7-3.8 1.7-5.7 4.1-7.8 4.5-3.8 5.3-3.4 1.2.7m-44.3 1.7-4.4 4 3.4 3.7c7 7.5 7.2 8.4.6 2.9-4.9-4.2-7.6-5.7-10-5.8l-3.2-.1 3.8-.8c2-.4 4.7-1.6 6-2.7 2.5-2.2 6.9-5.2 7.7-5.2.3 0-1.5 1.8-3.9 4M251 578.4c-1.3 1.3-3.5-.7-2.5-2.4.5-.8 1.1-.8 2.1.1 1 .8 1.2 1.5.4 2.3m524-.8c0 1.6-1.6 1.9-2.5.4-.8-1.3.4-3.2 1.6-2.5.5.4.9 1.3.9 2.1M296.2 591c10.9 14.6 26.7 30 52.3 50.9 2.8 2.3 10 7.7 16.1 12.1s11.7 8.7 12.5 9.7c1.8 2.2.9 1.7-9.6-5.5-28.9-19.8-40.8-29.6-53.8-44-7.7-8.5-19.6-23.7-23.2-29.7-2.8-4.5-.5-1.9 5.7 6.5m433.2-1.3c-13.9 21.5-39.3 45.6-67.4 63.8-4.1 2.7-8.7 5.7-10.2 6.7-1.6 1.1-2.8 1.7-2.8 1.5 0-.3 5.5-4.7 12.2-9.8s11.7-8.6 11.3-7.8c-.5.8.9-.4 3.1-2.6s9.1-8.3 15.4-13.5c14.5-12.1 28.1-25.7 34.4-34.3 5-6.7 7.4-9.1 4-4m-245 11.2c1.4 1.4 2.6 2.9 2.6 3.5-.1 1.7-9-8.6-9-10.4 0-.8.8-.2 1.9 1.5 1 1.6 3 4.1 4.5 5.4m-210.7-4.7c-.3.8-.6.5-.6-.6-.1-1.1.2-1.7.5-1.3.3.3.4 1.2.1 1.9m477.3.4c0 .8-.4 1.2-1 .9-.5-.3-1-1-1-1.6 0-.5.5-.9 1-.9.6 0 1 .7 1 1.6m-96.6 14.5c-5 5.6-32.1 28.1-45 37.4-7.7 5.6-9 6.3-7.9 4.5.5-.9.4-1.1-.4-.6-.6.4-.9 1.1-.6 1.6s-1.2 2.1-3.2 3.7c-2.1 1.5-8.1 6.4-13.3 10.8-5.2 4.3-8.6 6.9-7.6 5.7 1.5-1.7 1.6-2.2.5-2.2-.8 0-1.9.3-2.4.7-.6.5.8-.8 3-2.8 2.3-2.2 4.3-3.3 4.6-2.7.5.7 1.1.7 2 0 6.7-5.5 8.8-7.5 8.6-8.5-.2-1.3 26.7-21.9 27.1-20.7.4 1.1 3.2.1 3.2-1.2 0-.5-.6-.6-1.2-.2-1 .5-1 .4-.2-.5.6-.7 2-1.4 3-1.6 1.1-.1 1.8-.8 1.7-1.3-.2-.6.4-.9 1.3-.5.8.3 1.4.1 1.2-.5-.2-.5 3.5-3.9 8.2-7.5s10.8-8.6 13.5-11.1c5.4-4.9 6.9-5.9 3.9-2.5m-270.9 10.7c2.8 2.1 11.3 8.5 19 14.3 17.7 13.2 37.8 29.2 47.5 37.7 16 14.1 34.4 34.1 32.8 35.8-.3.2-3-2.3-5.9-5.7-11.7-13.6-35.7-34.4-68.9-59.9-17.1-13.2-21.1-16.4-30-25-4.7-4.5-6.5-6.6-4-4.6s6.8 5.4 9.5 7.4m40.1 12.9c10.1 7.9 25.4 21.4 25.1 22.1-.1.4 2.2 2.9 5.2 5.7 5.1 4.8 11.8 12.5 10.8 12.5-.3 0-5.9-5.3-12.4-11.8s-17-16.3-23.3-21.9c-6.3-5.5-13.3-12-15.5-14.4l-4-4.4 4 3.7c2.2 2 6.8 5.8 10.1 8.5m183.9-4c-2.2 1.9-7.4 6.1-11.5 9.1-4.1 3.1-13.9 11.9-21.8 19.7-17 16.6-15.7 15.5-14.4 13 3.4-6.4 23.4-24.4 47.2-42.8 5-3.8 5.2-3.3.5 1M296 638.5c1.3-.4 2 0 2.5 1.4.3 1.2 2.6 3.5 5.1 5.3 2.4 1.7 4.4 3.3 4.4 3.5s-2.4-1-5.4-2.7c-3.1-1.8-6-2.8-7-2.4-1.1.4-1.6.1-1.6-1.4 0-1.1-1.6-3.4-3.5-5.1s-3.5-3.3-3.5-3.7c0-.3 1.6.8 3.6 2.5 2.3 2.1 4.2 3 5.4 2.6m438.3-2.3c-1.7 1.8-3.6 4.3-4.2 5.5-.7 1.4-1.7 2-3 1.6-1-.3-3 0-4.2.7-2 .9-1.9.7.4-1.1 1.9-1.5 2.6-2.7 2.2-4-.5-1.6-.2-1.8 2.2-1.3 2 .3 3.6-.2 5.8-2 4.1-3.5 4.5-3.2.8.6m-363.4 32c.2 1.4-6-1.2-19.9-8.7-8-4.2-14.9-8.1-15.5-8.7-.5-.5 7.2 3 17.2 7.9 10 4.8 18.2 9.1 18.2 9.5m315.6-16.6c-1.1.8-15.4 8.2-31.7 16.5-37.4 18.9-49.9 27.5-74.8 51.3l-10.5 10.1 11-11.3c19-19.6 46.5-41.3 56-44.2 3.6-1.1 18.4-7.9 42-19.5 9.8-4.8 11-5.2 8-2.9M587 662.4c0 .2-.8 1-1.7 1.7-1.6 1.3-1.7 1.2-.4-.4s2.1-2.1 2.1-1.3m-190.5 16.4c15.5 10.5 27.9 20.8 42.5 35.2 6.9 6.9 8.8 8.9 4.1 4.4-15.5-14.6-33.7-28.7-50.9-39.3-11-6.8-12.5-8-9-7.9 1.3.1 7.3 3.5 13.3 7.6m272.9 11.3c-.3.5-1 .7-1.5.3-.5-.3-.7-1-.3-1.5.3-.5 1-.7 1.5-.3.5.3.7 1 .3 1.5m-288.2 19c1.5 1.5 1.5 1.8-.7 4.3l-2.4 2.8-2.8-2.8-2.8-2.9 2.5-2.5c1.7-1.8 2.8-2.3 3.5-1.5.6.5 1.7 1.7 2.7 2.6m266.9-1.5c.7.9 2.2 2 3.4 2.4 1.6.7 1.6.9.3.9-.9.1-2.5 1.2-3.6 2.6l-2 2.5-2-2.5c-1.1-1.4-2.6-2.5-3.3-2.6-.8 0-.4-.4.9-.9 1.2-.5 2.5-1.6 2.8-2.5.8-1.9 1.8-1.9 3.5.1M408 713c0 .5-.4 1-1 1-.5 0-1-.5-1-1 0-.6.5-1 1-1 .6 0 1 .4 1 1m3.5 23c.4.6.1 1.8-.6 2.6-1.1 1.3-1.4 1.3-2.7 0-.8-.8-1.1-1.9-.8-2.5.9-1.4 3.3-1.4 4.1-.1m206.5 1c0 1.1-.6 2-1.4 2-1.8 0-2.9-1.6-2.1-3 1.1-1.8 3.5-1.1 3.5 1m-29 5c0 .5-.4 1-1 1-.5 0-1-.5-1-1 0-.6.5-1 1-1 .6 0 1 .4 1 1m-149 1c0 .5-.4 1-1 1-.5 0-1-.5-1-1 0-.6.5-1 1-1 .6 0 1 .4 1 1m4.5 27c.3.5.1 1-.4 1-.6 0-1.1-.5-1.1-1 0-.6.2-1 .4-1 .3 0 .8.4 1.1 1m135.5 0c0 .5-.5 1-1.1 1-.5 0-.7-.5-.4-1 .3-.6.8-1 1.1-1 .2 0 .4.4.4 1"></path><path d="M505.6 150.6c-6.4 6.9-6.8 7.7-5.7 10 1.6 3.5 1.4 4.3-.9 3.7-3.3-.9-10 6.6-10 11.1 0 .8 2.3 4 5.1 7.1 3 3.2 5.4 6.9 5.8 8.8l.7 3.2 11.7.3 11.7.3v-2.6c0-1.7 1.6-4.3 4.4-7.3 4.9-5.3 6.6-8.2 6.6-11s-5.6-10.1-8.4-10.8c-2.1-.5-2.4-1-1.9-3.7.4-2.8-.1-3.7-3.5-6.9-2.1-2-5-5-6.3-6.6l-2.4-3zm7.3 3.9c0 1.1-1.1 2.8-2.4 3.8-2.9 2.1-3 1.6-.8-4.8 1.3-4 1.8-4.6 2.4-3 .4 1.1.8 2.9.8 4m6.3 12.4c2.8 3.1 3 3.8 2.4 8.4-.9 6.3-1.7 7.7-5.9 11-3.4 2.6-3.4 2.6-6.4.7-1.9-1.1-4.1-4-5.7-7.5-2.5-5.1-2.6-5.9-1.4-9.2.7-1.9 2.8-4.8 4.6-6.3 3-2.5 3.7-2.6 6.4-1.6 1.7.6 4.4 2.6 6 4.5m-20.3 4.5c.9 1.1.9 1.5-.1 2s-1 .7 0 1.2c1.9.9 1.4 2.4-.8 2.4-1.1 0-2-.5-2-1 0-.6-.9-1-2-1-2.4 0-2.5-.8-.3-3.2 1.9-2.2 3.6-2.3 5.2-.4m30.6 1.8c.5.5.1.8-1 .8-1 0-2.6.7-3.6 1.6-1.6 1.4-1.7 1.3-1.6-1.9.1-3.3.2-3.4 2.6-2.4 1.5.6 3 1.4 3.6 1.9"></path><path d="M508.3 168.2c-3.2 3.7-3.5 4.6-1.9 7.7 2.1 4 5.1 4.8 8.5 2.4 3.5-2.6 3.9-6.8 1-9.9-2.8-3-5-3-7.6-.2M516.2 180.2c-2.4 1.5-4.2 1.9-6.7 1.5-4.3-.7-4.5.3-.4 2.7 3.7 2.2 7.1 1.5 9.3-1.9 2.5-3.8 1.6-4.7-2.2-2.3M509.7 196.7c-7.6.3-8.8.6-8.5 2 .4 2.3 3.8 3.1 13.4 3.2 6.1.1 8.5-.3 9.4-1.4 1.9-2.3.5-4.5-2.7-4.3-1.5.1-6.8.4-11.6.5M508.6 205l-7 .5 3.3 3.2c2.2 2.3 4.2 3.3 6.3 3.3 3.8 0 9.8-3.6 9.8-5.8 0-1.9-1.7-2.1-12.4-1.2M515.5 213.1c-1.6 1-3.8 1.9-4.8 1.9-1.4 0-1.6.5-1.1 2.5.7 2.9-.2 3.2-2.8.8-1.7-1.5-1.8-1.5-1.8.8 0 1.3.9 3 2 3.7 2.7 1.7 2.5 3.1-.7 4.3-1.9.7-2.3 1.3-1.5 2.1s1.5.8 2.5 0c.7-.6 3.7-2.4 6.7-4l5.5-2.8.3-5.7c.2-3.1-.1-5.7-.5-5.6-.4 0-2.1.9-3.8 2M505 214.1c0 .5.5.7 1 .4.6-.3 1-.8 1-1.1 0-.2-.4-.4-1-.4-.5 0-1 .5-1 1.1M511.8 229.9c-3.6 2.5-7 4.9-7.3 5.3-1 .9.3 5.8 1.4 5.8.5 0 .7-.9.4-1.9-.3-1.3.2-2.1 1.7-2.6 2.9-.9 3.7.1 1.7 2.3-2.2 2.4-2.2 5.2 0 5.2.9 0 3.5-1.2 5.7-2.7 2.3-1.5 4.2-2.7 4.3-2.8 0 0 .4-3 .8-6.8.9-8.2.5-8.3-8.7-1.8M515 244.4c-5.1 3.7-6.5 7.4-3.1 8.3 1.1.3 1.8.9 1.6 1.4-.3.4-2.5-.5-4.9-2.2-5.3-3.5-5.6-3.6-5.6-.4 0 1.8.9 3.1 3 4.3 2.3 1.3 3 2.3 2.7 3.9-.2 1.3-.2 2.3.1 2.3s3.2-1.7 6.4-3.8l5.8-3.7v-6.8c0-3.7-.3-6.7-.7-6.6-.5 0-2.8 1.5-5.3 3.3M513.5 263c-3.8 2.8-8 5.5-9.2 6-3.1 1.3-2.9 2.7 1.2 6.7l3.5 3.4 5-2.7c2.8-1.5 5.6-3.4 6.2-4.2 1.1-1.3 1.8-14.2.8-14.2-.3 0-3.6 2.3-7.5 5m-3.5 9.9c-1.2 2.3-3 3.6-3 2.2 0-2.1 1.3-4.1 2.6-4.1 1.1 0 1.2.4.4 1.9M518.5 275.9c-.3.6-2.8 2.4-5.5 4.2-4.9 3.2-5 3.3-3.5 5.6 2.5 3.7.8 4.5-3.5 1.8-2.2-1.4-4.1-2.5-4.3-2.5s-.2 1.3.1 2.9c.2 1.8 1.1 3.1 2.4 3.4 1.1.3 2.2 1.5 2.5 2.6.5 1.9.7 2 4.2.5 2-.8 4.9-2.4 6.4-3.5s3.3-1.9 3.9-1.7c.7.3-2 2.8-6 5.8-7.3 5.5-8.5 7.3-5.5 8.4 1.1.5 1.3 1 .6 1.7s-2.3.4-5.2-1L501 302v3.9c0 4.3 2.1 6.6 8 9.1 2.5 1.1 3.7 1 7.3-.4 8.1-3.1 7.7-1.6 6.3-25.4-.6-10.7-1.2-14.2-2.2-14.2-.7 0-1.5.4-1.9.9m-5.8 33.1c2.5 0 2.6.1 1.1 1.6-1.4 1.5-2.1 1.5-4.7.5-1.6-.7-3.7-2.2-4.7-3.2-1.7-1.9-1.7-1.9 1.9-.4 2 .8 4.9 1.5 6.4 1.5"></path><path d="M520.6 315.7c-.4.4-5.5 1-11.4 1.3-9.4.4-10.7.7-11 2.4-.4 1.8.3 1.9 12.2 1.4 13.2-.5 16.1-1.4 13.3-4.2-1.8-1.8-2.1-1.9-3.1-.9M512.8 346.7c-.3 6.3-1.6 7.5-4.7 4.4-1.7-1.7-1.9-2.5-.9-5.1.5-1.7.8-3.3.6-3.6-1.1-1-5.8 3.9-5.8 6.1 0 2.1 7 13.8 9 15 1.2.7 9.6-9.5 10.4-12.7.5-2.1 0-3.5-2.5-6.3-4.5-5.1-5.7-4.6-6.1 2.2M437 340.5c0 1.6 4.9 4.5 7.7 4.5 1.3 0 .8-.8-1.7-3-3.9-3.2-6-3.8-6-1.5M522.2 763c0 1.9.2 2.7.5 1.7.2-.9.2-2.5 0-3.5-.3-.9-.5-.1-.5 1.8M612 644.1c-3.3 2.9-3.3 3-.5 1.4 5.6-3.4 7-4.5 5.5-4.5-.8 0-3.1 1.4-5 3.1M603.9 650c-1.3 1-1.9 1.9-1.3 2 .6 0 1.9-.9 2.9-2 2.3-2.6 1.4-2.6-1.6 0M579.4 670.2l-1.9 2.3 2.3-1.9c1.2-1.1 2.2-2.1 2.2-2.3 0-.8-.8-.2-2.6 1.9"></path></svg></g></g><defs><clipPath id="SvgjsClipPath1010"><rect width="1000" height="1000" x="0" y="0" rx="350" ry="350"></rect></clipPath></defs></svg>